<svg width="200" height="40" viewBox="0 0 200 40" fill="none" xmlns="http://www.w3.org/2000/svg">
<path d="M0.028045 27.4411H2.40065C5.82776 27.4411 7.18513 29.4211 7.18513 32.2144C7.18513 35.6807 4.86862 37.0101 1.69953 37.0101H0.016827L0.028045 27.4411V27.4411ZM0.975967 36.1911H1.75562C4.47038 36.1911 6.24282 35.0694 6.24282 32.1583C6.24282 29.2472 4.50403 28.2656 2.367 28.2656H0.981576L0.975967 36.1911ZM13.1756 35.8883C12.9577 36.2899 12.6326 36.6232 12.2364 36.851C11.8403 37.0788 11.3887 37.1921 10.932 37.1783C8.94636 37.1783 8.62665 35.8322 8.62665 35.204C8.62665 32.8594 11.1227 32.7472 12.9344 32.7472H13.097V32.3939C13.097 31.1991 12.6707 30.599 11.5097 30.599C10.7835 30.5812 10.068 30.7762 9.45117 31.1599V30.3241C10.1003 30.0344 10.7992 29.8725 11.5097 29.8474C13.2316 29.8474 13.9608 30.627 13.9608 32.4499V35.5349C13.9476 36.0239 13.9701 36.5131 14.0281 36.9988H13.1812L13.1756 35.8883V35.8883ZM13.0914 33.4876H12.8446C11.3526 33.4876 9.56896 33.6391 9.56896 35.1703C9.56896 36.0902 10.2252 36.4323 11.0217 36.4323C13.0522 36.4323 13.0914 34.6599 13.0914 33.9083V33.4876V33.4876ZM19.0257 30.7616H17.4384V35.2825C17.4384 35.9163 17.6684 36.4379 18.3695 36.4379C18.6433 36.4384 18.9143 36.3831 19.166 36.2753L19.2165 36.9876C18.8781 37.1097 18.5216 37.1741 18.162 37.1783C16.6307 37.1783 16.5746 36.1238 16.5746 34.845V30.7616H15.2004V30.0493H16.5746V28.3666L17.4384 28.0693V30.0493H19.0257V30.7616ZM24.5899 35.8883C24.372 36.2899 24.0469 36.6232 23.6507 36.851C23.2546 37.0788 22.803 37.1921 22.3463 37.1783C20.3551 37.1783 20.041 35.8322 20.041 35.204C20.041 32.8594 22.537 32.7472 24.3431 32.7472H24.5114V32.3939C24.5114 31.1991 24.0851 30.599 22.9184 30.599C22.194 30.5813 21.4803 30.7763 20.8655 31.1599V30.3241C21.5129 30.035 22.2098 29.8731 22.9184 29.8474C24.646 29.8474 25.3751 30.627 25.3751 32.4499V35.5349C25.362 36.0239 25.3845 36.5131 25.4424 36.9988H24.5899V35.8883ZM24.5114 33.4876H24.2758C22.7782 33.4876 21.0001 33.6391 21.0001 35.1703C21.0001 36.0902 21.6564 36.4323 22.4528 36.4323C24.4777 36.4323 24.5226 34.6599 24.5226 33.9083L24.5114 33.4876V33.4876ZM33.9681 29.8586C36.2117 29.8586 37.2326 31.6142 37.2326 33.5157C37.2326 35.4171 36.2286 37.1783 33.9681 37.1783C31.7077 37.1783 30.7037 35.4227 30.7037 33.5157C30.7037 31.6086 31.7077 29.8586 33.9681 29.8586V29.8586ZM33.9681 36.4379C35.477 36.4379 36.2847 35.1367 36.2847 33.5157C36.2847 31.8947 35.4938 30.6102 33.9681 30.6102C32.4425 30.6102 31.6516 31.9115 31.6516 33.5269C31.6516 35.1423 32.4593 36.4379 33.9681 36.4379ZM47.3063 37.0101V32.3658C47.3063 31.3786 46.9362 30.599 45.8256 30.599C44.8776 30.599 43.9465 31.4067 43.9465 33.1455V37.0101H43.0828V32.3658C43.0828 31.3786 42.7126 30.599 41.602 30.599C40.6597 30.599 39.723 31.4067 39.723 33.1455V37.0101H38.8592V31.6647C38.8592 31.1318 38.8592 30.5821 38.8087 30.0212H39.6444V31.1991H39.6725C39.8469 30.7731 40.1509 30.4128 40.5415 30.1691C40.9321 29.9255 41.3895 29.811 41.8488 29.8418C42.2865 29.8127 42.7193 29.9485 43.0619 30.2226C43.4045 30.4967 43.632 30.8891 43.6998 31.3225H43.7278C43.9048 30.8754 44.215 30.4935 44.6163 30.2287C45.0176 29.9638 45.4907 29.8287 45.9714 29.8418C47.3849 29.8418 48.1813 30.8289 48.1813 32.1863V36.9932L47.3063 37.0101V37.0101ZM62.5348 37.0101V32.3658C62.5348 31.3786 62.1646 30.599 61.054 30.599C60.1061 30.599 59.175 31.4067 59.175 33.1455V37.0101H58.3112V32.3658C58.3112 31.3786 57.941 30.599 56.8304 30.599C55.8881 30.599 54.957 31.4067 54.957 33.1455V37.0101H54.0876V31.6647C54.0876 31.1318 54.0876 30.5821 54.0372 30.0212H54.8729V31.1991H54.9009C55.0753 30.7731 55.3794 30.4128 55.77 30.1691C56.1606 29.9255 56.6179 29.811 57.0772 29.8418C57.515 29.8127 57.9478 29.9485 58.2903 30.2226C58.6329 30.4967 58.8605 30.8891 58.9282 31.3225H58.9562C59.1332 30.8754 59.4434 30.4935 59.8447 30.2287C60.2461 29.9638 60.7192 29.8287 61.1998 29.8418C62.6077 29.8418 63.4042 30.8289 63.4042 32.1863V36.9932L62.5348 37.0101V37.0101ZM66.3714 28.1591H65.5076V27.0036H66.3714V28.1591ZM65.5076 30.0493H66.3714V37.0381H65.5076V30.0493ZM68.5533 26.7288H69.417V37.0101H68.5533V26.7288ZM70.1294 39.1527C70.2988 39.2032 70.4743 39.2312 70.651 39.2368C71.526 39.2368 71.5933 38.6142 71.5933 37.8907V30.0493H72.4571V38.0253C72.4571 39.1471 72.143 39.9997 70.881 39.9997C70.6288 40.003 70.3769 39.9805 70.1294 39.9324V39.1527V39.1527ZM72.4571 28.1591H71.5933V27.0036H72.4571V28.1591ZM80.9267 29.9371L79.9283 31.0926C80.4227 31.8014 80.6728 32.652 80.6407 33.5157C80.6407 35.4227 79.6366 37.1783 77.3762 37.1783C76.6072 37.2048 75.8557 36.945 75.2672 36.4492L74.3081 37.571L73.8257 37.1727L74.8522 35.9948C74.3462 35.2733 74.0866 34.4078 74.1118 33.5269C74.1118 31.6254 75.1158 29.8698 77.3762 29.8698C77.7655 29.8504 78.1548 29.9083 78.5216 30.0402C78.8884 30.1721 79.2255 30.3753 79.5132 30.6382L80.4443 29.5501L80.9267 29.9371V29.9371ZM78.9523 31.2664C78.7509 31.0512 78.5065 30.8806 78.235 30.7656C77.9636 30.6507 77.671 30.5939 77.3762 30.599C75.8674 30.599 75.0597 31.9003 75.0597 33.5157C75.0475 34.1259 75.1883 34.7294 75.4691 35.2713L78.9523 31.2664V31.2664ZM75.8393 35.7929C76.0362 36.0019 76.2747 36.1673 76.5394 36.2784C76.8041 36.3895 77.0892 36.4439 77.3762 36.4379C78.885 36.4379 79.6927 35.1367 79.6927 33.5157C79.7087 32.9227 79.5776 32.335 79.3113 31.8049L75.8393 35.7929ZM86.9452 36.7801C86.2994 37.0312 85.6132 37.1624 84.9203 37.1671C82.6038 37.1671 81.74 35.6022 81.74 33.5044C81.74 31.4067 82.9179 29.8474 84.6847 29.8474C86.6591 29.8474 87.4892 31.4347 87.4892 33.3137V33.7512H82.7048C82.7048 35.232 83.5012 36.4267 85.0101 36.4267C85.6936 36.4032 86.363 36.2248 86.9676 35.9051L86.9452 36.7801V36.7801ZM86.5357 33.0221C86.5357 31.8049 86.0421 30.599 84.7521 30.599C83.462 30.599 82.6935 31.8722 82.6935 33.0221H86.5357ZM92.1447 30.7616H90.5574V35.2825C90.5574 35.9163 90.7873 36.4379 91.4885 36.4379C91.7622 36.438 92.0331 36.3826 92.285 36.2753L92.3354 36.9876C91.9971 37.1097 91.6406 37.1741 91.2809 37.1783C89.7441 37.1783 89.6936 36.1238 89.6936 34.845V30.7616H88.3194V30.0493H89.6936V28.3666L90.5574 28.0693V30.0493H92.1447V30.7616V30.7616ZM98.3539 28.1591H97.4901V27.0036H98.3539V28.1591ZM97.4901 30.0493H98.3539V37.0381H97.4901V30.0493ZM104.356 27.4411H106.728C110.155 27.4411 111.513 29.4211 111.513 32.2144C111.513 35.6807 109.196 37.0101 106.027 37.0101H104.344L104.356 27.4411ZM105.303 36.1911H106.083C108.798 36.1911 110.57 35.0694 110.57 32.1583C110.57 29.2472 108.832 28.2656 106.689 28.2656H105.309L105.303 36.1911ZM117.503 35.8883C117.285 36.2899 116.96 36.6232 116.564 36.851C116.168 37.0788 115.716 37.1921 115.259 37.1783C113.268 37.1783 112.954 35.8322 112.954 35.204C112.954 32.8594 115.45 32.7472 117.262 32.7472H117.425V32.3939C117.425 31.1991 116.998 30.599 115.832 30.599C115.107 30.582 114.394 30.7769 113.779 31.1599V30.3241C114.426 30.035 115.123 29.8731 115.832 29.8474C117.559 29.8474 118.288 30.627 118.288 32.4499V35.5349C118.275 36.0239 118.298 36.5131 118.356 36.9988H117.509L117.503 35.8883ZM117.419 33.4876H117.172C115.68 33.4876 113.896 33.6391 113.896 35.1703C113.896 36.0902 114.553 36.4323 115.349 36.4323C117.38 36.4323 117.419 34.6599 117.419 33.9083V33.4876V33.4876ZM120.341 31.6647C120.35 31.1163 120.331 30.5678 120.285 30.0212H121.121V31.2664C121.297 30.8241 121.609 30.4492 122.013 30.1961C122.416 29.943 122.889 29.8248 123.364 29.8586C125.092 29.8586 125.748 30.9804 125.748 32.5453V37.0325H124.884V32.7865C124.884 31.4684 124.419 30.6214 123.202 30.6214C121.626 30.6214 121.132 32.0068 121.132 33.1679V37.0325H120.274L120.341 31.6647V31.6647ZM136.405 37.0101V32.3658C136.405 31.3786 136.035 30.599 134.925 30.599C133.977 30.599 133.046 31.4067 133.046 33.1455V37.0101H132.182V32.3658C132.182 31.3786 131.812 30.599 130.701 30.599C129.753 30.599 128.822 31.4067 128.822 33.1455V37.0101H127.958V31.6647C127.967 31.1163 127.948 30.5678 127.902 30.0212H128.743V31.1991C128.919 30.7727 129.224 30.4121 129.615 30.1685C130.007 29.9249 130.465 29.8106 130.925 29.8418C131.363 29.8127 131.796 29.9485 132.138 30.2226C132.481 30.4967 132.709 30.8891 132.776 31.3225C132.953 30.8754 133.264 30.4935 133.665 30.2287C134.066 29.9638 134.539 29.8287 135.02 29.8418C136.433 29.8418 137.23 30.8289 137.23 32.1863V36.9932L136.405 37.0101V37.0101ZM143.394 35.8883C143.177 36.2903 142.852 36.624 142.456 36.8518C142.059 37.0797 141.607 37.1927 141.151 37.1783C139.165 37.1783 138.851 35.8322 138.851 35.204C138.851 32.8594 141.347 32.7472 143.153 32.7472H143.316V32.3939C143.316 31.1991 142.895 30.599 141.728 30.599C141.002 30.5812 140.287 30.7762 139.67 31.1599V30.3241C140.32 30.0362 141.018 29.8744 141.728 29.8474C143.456 29.8474 144.179 30.627 144.179 32.4499V35.5349C144.165 36.024 144.19 36.5135 144.252 36.9988H143.4L143.394 35.8883ZM143.31 33.4876H143.063C141.571 33.4876 139.788 33.6391 139.788 35.1703C139.788 36.0902 140.449 36.4323 141.24 36.4323C143.271 36.4323 143.31 34.6599 143.31 33.9083V33.4876V33.4876ZM146.232 31.5862C146.247 31.0639 146.228 30.5412 146.176 30.0212H147.04V31.3674C147.354 30.5821 147.943 29.8586 148.835 29.8586C149.039 29.8617 149.242 29.888 149.441 29.9371V30.8458C149.235 30.7876 149.021 30.7593 148.807 30.7616C147.438 30.7616 147.068 32.2985 147.068 33.5661V37.0157H146.204L146.232 31.5862V31.5862ZM150.798 26.7288H151.662V32.8987L154.786 30.0325H155.908L152.492 33.1286L156.317 37.0213H155.128L151.673 33.4315V37.0213H150.809L150.798 26.7288ZM0.022436 2.25106V2.17815H3.94874C6.75324 2.17815 8.75005 2.99145 10.0233 4.3881C11.2909 5.78474 11.8518 7.7535 11.8518 10.0588C11.8518 15.7744 8.00405 17.9731 2.8045 17.9787H0L0.022436 2.25106ZM2.89425 16.4923C7.31975 16.4923 10.1523 14.7367 10.186 9.96905C10.186 5.22384 7.38145 3.67575 3.90387 3.66453H1.71075V16.4923H2.89425V16.4923ZM12.968 14.9499C12.968 11.0235 17.1355 10.8665 20.0858 10.8609H20.2822V10.3505C20.2822 8.40975 19.6259 7.48987 17.7525 7.47866C16.5749 7.45792 15.417 7.78153 14.4208 8.40975L14.3142 8.47706V6.94019H14.3534C15.4247 6.45929 16.579 6.19071 17.7525 6.14932C19.1716 6.14932 20.2036 6.47465 20.8711 7.18699C21.5386 7.89933 21.8359 8.98187 21.8359 10.4851V15.5332C21.8138 16.3313 21.8513 17.13 21.948 17.9226V18.0068H20.4056V16.3241C20.0268 16.9373 19.4953 17.4416 18.8631 17.7877C18.2309 18.1338 17.5196 18.3098 16.799 18.2984C13.5065 18.2984 12.9624 16.0548 12.9568 14.9947L12.968 14.9499V14.9499ZM14.6507 14.905C14.6507 16.3633 15.6772 16.8906 16.9616 16.8962C20.2205 16.8962 20.2709 14.0917 20.2766 12.8409V12.2127H19.9456C17.4889 12.2127 14.6563 12.4707 14.6507 14.905ZM32.0218 17.9843V10.9787C32.0218 8.83043 31.287 7.5067 29.38 7.50109C26.8503 7.50109 26.065 9.71104 26.0594 11.6069V18.0068H24.5057V9.16136C24.5057 8.28635 24.5057 7.38891 24.416 6.47464V6.39612H25.9304V8.29196C26.424 7.28795 27.3439 6.12128 29.6099 6.12689C32.4761 6.12689 33.5811 8.0676 33.5811 10.6141V18.0011L32.0218 17.9843V17.9843ZM50.3184 17.9787V17.9114V17.9787H50.2455V10.3056C50.2455 8.70142 49.6846 7.50109 47.8897 7.50109C46.3865 7.50109 44.8945 8.77995 44.8889 11.6069V18.0011H43.3464V10.3056C43.3464 8.70142 42.7855 7.50109 40.9906 7.50109C39.4874 7.50109 37.9898 8.77995 37.9898 11.6069V18.0011H36.4361V9.16136C36.4361 8.28635 36.4361 7.38891 36.3464 6.47464V6.39612H37.8664V8.23026C38.1693 7.55893 38.6714 6.99702 39.3045 6.62076C39.9377 6.24449 40.6712 6.07207 41.4057 6.12689C42.1099 6.0856 42.8057 6.29755 43.3674 6.72444C43.929 7.15133 44.3195 7.76501 44.4682 8.45462C44.7827 7.74867 45.2985 7.15123 45.951 6.73716C46.6036 6.32308 47.3638 6.11079 48.1365 6.12689C50.481 6.12689 51.8104 7.80959 51.816 10.0532V17.9955L50.3184 17.9787V17.9787ZM53.6838 14.9499C53.6838 11.0235 57.8457 10.8665 60.796 10.8609H60.9979V10.3505C60.9979 8.40975 60.3417 7.48987 58.4627 7.47866C57.2869 7.45803 56.1307 7.78168 55.1365 8.40975L55.0299 8.47706V6.94019H55.0692C56.1383 6.45877 57.2909 6.19015 58.4627 6.14932C59.8873 6.14932 60.9138 6.47465 61.5869 7.18699C62.2543 7.89933 62.5516 8.98187 62.5516 10.4851V15.5332C62.5296 16.3313 62.5671 17.13 62.6638 17.9226V18.0068H61.1213V16.3241C60.7413 16.9373 60.2087 17.4416 59.5756 17.7876C58.9425 18.1337 58.2305 18.3097 57.5091 18.2984C54.2166 18.2984 53.6726 16.0548 53.6726 14.9947L53.6838 14.9499V14.9499ZM55.3665 14.905C55.3665 16.3633 56.3873 16.8906 57.6718 16.8962C60.9362 16.8962 60.9867 14.0917 60.9923 12.8409V12.2127H60.6558C58.2046 12.2127 55.3721 12.4707 55.3665 14.905V14.905ZM65.2215 17.9787V9.00431C65.245 8.15257 65.215 7.30019 65.1318 6.45221V6.37368H66.6911V8.40414C67.252 7.1926 68.1887 6.10445 69.6077 6.10445C69.947 6.10853 70.2844 6.15565 70.6118 6.24468H70.6622V7.8769L70.5725 7.84324C70.2434 7.75438 69.9037 7.71097 69.5629 7.71423C67.3866 7.71423 66.7584 10.1598 66.7584 12.2014V17.9226L65.2215 17.9787V17.9787ZM79.8049 17.9843L74.252 12.207V17.9843H72.6983V1.01147H74.252V10.9787L79.3001 6.37929H81.325L75.6206 11.5396L81.9476 17.9843H79.8049ZM82.946 17.7095H82.8955L83.0357 16.268V16.167L83.1254 16.2119C84.0435 16.6717 85.0546 16.9153 86.0814 16.9242C87.4051 16.9242 88.5437 16.2007 88.5437 14.9499C88.6054 12.3304 83.0918 12.7455 83.0469 9.34085C83.0469 7.02433 84.9428 6.15493 86.8442 6.14932C87.8159 6.16835 88.7782 6.34451 89.6936 6.67096H89.7497L89.5982 8.05638L89.5085 8.01712C88.7173 7.6686 87.8656 7.47806 87.0013 7.45622C85.5485 7.45622 84.6118 7.8825 84.6006 9.29597C84.5333 11.3152 90.2096 11.0852 90.2377 14.905C90.2377 17.3842 87.9099 18.2255 86.1711 18.2311C85.0669 18.2465 83.9694 18.0563 82.9347 17.6702L82.946 17.7095ZM113.582 17.9787V4.04595L107.973 17.9787H106.56L100.726 4.04034V17.9787H99.0438V2.17815H101.562L107.239 15.8417L112.937 2.17815H115.276V17.9787H113.582ZM118.832 17.9843V6.39612H120.386V17.9843H118.832ZM118.832 3.48505V1.44337H120.386V3.46822L118.832 3.48505V3.48505ZM123.813 17.9787V1.01147H125.367V17.9787H123.813ZM126.455 22.7183H126.393V21.3329H126.489C126.758 21.4159 127.037 21.4608 127.319 21.4675C128.704 21.4675 128.788 20.5364 128.8 19.3361V6.39612H130.353V19.5268C130.353 21.3722 129.792 22.8249 127.7 22.8305C127.288 22.8316 126.877 22.7941 126.472 22.7183H126.455V22.7183ZM128.8 3.48505V1.44337H130.353V3.46822L128.8 3.48505V3.48505ZM138.318 6.1998C142.02 6.1998 143.658 9.07161 143.658 12.1902C143.658 15.3088 142.02 18.1806 138.318 18.1806C134.616 18.1806 132.973 15.3088 132.973 12.1902C132.973 9.07161 134.61 6.1998 138.318 6.1998V6.1998ZM138.318 16.9691C140.786 16.9691 142.11 14.8377 142.11 12.1902C142.11 9.54277 140.786 7.41135 138.318 7.41135C135.85 7.41135 134.521 9.54277 134.521 12.1902C134.521 14.8377 135.844 16.9691 138.318 16.9691ZM151.78 6.12689C151.024 6.11233 150.28 6.31629 149.637 6.71428C148.994 7.11228 148.48 7.68737 148.156 8.37049L148.24 6.41295H146.681V22.6791H148.235V16.1726C148.543 16.8392 149.048 17.3953 149.682 17.7664C150.315 18.1374 151.048 18.3054 151.78 18.2479C154.971 18.2479 156.559 15.5949 156.564 12.1902C156.559 8.69581 155.19 6.1325 151.78 6.12689ZM151.555 16.9691C149.042 16.9691 148.19 14.2768 148.19 12.1902C148.19 10.1037 149.065 7.41135 151.555 7.41135C154.248 7.41135 154.921 9.96905 154.921 12.1902C154.921 14.4114 154.248 16.9691 151.555 16.9691ZM163.833 6.1998C167.535 6.1998 169.173 9.07161 169.173 12.1902C169.173 15.3088 167.535 18.1806 163.833 18.1806C160.131 18.1806 158.494 15.3088 158.494 12.1902C158.494 9.07161 160.131 6.1998 163.833 6.1998V6.1998ZM163.833 16.9691C166.301 16.9691 167.625 14.8377 167.625 12.1902C167.625 9.54277 166.301 7.41135 163.833 7.41135C161.365 7.41135 160.042 9.54277 160.042 12.1902C160.042 14.8377 161.365 16.9691 163.833 16.9691ZM171.793 17.9843V9.00991C171.816 8.15818 171.786 7.3058 171.703 6.45782V6.37929H173.268V8.40975C173.829 7.20382 174.76 6.11006 176.184 6.11006C176.524 6.11497 176.861 6.16208 177.188 6.25028H177.239V7.88251L177.149 7.85446C176.819 7.76053 176.477 7.71518 176.134 7.71984C173.963 7.71984 173.329 10.1654 173.329 12.207V17.9338L171.793 17.9843V17.9843ZM180.167 14.3441V7.72545H177.923V6.37368H180.167V3.68697L181.721 3.12607V6.40734H184.323V7.75911H181.721V15.0957C181.721 16.1165 182.08 16.9074 183.179 16.913C183.617 16.9099 184.05 16.8184 184.452 16.6438L184.542 16.6101L184.643 17.9226H184.592C184.031 18.1254 183.439 18.2316 182.842 18.2367C180.273 18.2367 180.172 16.4306 180.167 14.3553V14.3441V14.3441ZM185.843 14.9499C185.843 11.0235 190.011 10.8665 192.961 10.8609H193.163V10.3505C193.163 8.40975 192.507 7.48987 190.628 7.47866C189.452 7.45803 188.296 7.78168 187.302 8.40975L187.189 8.47706V6.94019H187.234C188.303 6.45877 189.456 6.19015 190.628 6.14932C192.052 6.14932 193.079 6.47464 193.746 7.18138C194.419 7.89933 194.717 8.98187 194.717 10.4851V15.5332C194.695 16.3313 194.732 17.13 194.829 17.9226V18.0011H193.286V16.3184C192.905 16.9267 192.374 17.4261 191.743 17.7681C191.112 18.1101 190.403 18.2831 189.685 18.2704C186.393 18.2704 185.849 16.0268 185.843 14.9723V14.9499V14.9499ZM187.526 14.905C187.526 16.3633 188.547 16.8906 189.831 16.8962C193.09 16.8962 193.14 14.0917 193.152 12.8409V12.2127H192.815C190.358 12.2127 187.531 12.4707 187.526 14.905ZM197.942 17.9787V1.01147H199.495V17.9787H197.942Z" fill="white"/>
<path d="M146.367 0.394478C146.305 -0.0654599 146.12 -0.132768 145.963 0.243035C145.799 0.618017 145.561 0.955772 145.262 1.23583C144.861 1.48774 144.424 1.67689 143.966 1.79673C143.484 1.93695 142.845 2.13327 142.603 2.23423C142.326 2.33899 142.058 2.46657 141.801 2.61564C141.597 2.75895 141.433 2.95202 141.325 3.17654C141.221 3.44609 141.159 3.72973 141.14 4.01789C141.135 4.47479 141.186 4.93052 141.291 5.37527C141.364 5.71181 141.437 6.02592 141.47 6.19419C140.461 8.03955 134.874 16.066 134.521 16.6718C134.168 17.2776 133.96 17.3842 133.635 17.4907C132.883 17.5805 132.625 18.9378 133.399 19.1229C134.173 19.308 134.779 18.0741 134.779 18.0741L141.902 6.49147H143.047C143.556 6.41939 144.048 6.24991 144.494 5.99226C144.992 5.66354 145.404 5.219 145.694 4.69658C145.933 4.22291 146.136 3.73162 146.3 3.22703C146.412 2.79625 146.474 2.35426 146.485 1.90891C146.476 1.40219 146.437 0.896459 146.367 0.394478ZM145.946 1.74064C145.784 2.04353 145.537 2.49785 145.386 2.76148C145.234 3.0251 144.993 3.54113 144.825 3.91132C144.635 4.29614 144.394 4.6529 144.107 4.97143C143.834 5.22159 143.541 5.44819 143.232 5.65012C142.922 5.83252 142.59 5.97393 142.244 6.07079C141.97 6.1381 141.942 5.96983 142.183 5.69499C142.395 5.44258 142.619 5.20139 142.856 4.97143C142.985 4.85364 143.271 4.57319 143.49 4.34883C143.713 4.12151 143.914 3.87361 144.09 3.60844C144.196 3.43456 144.499 2.96901 144.763 2.5876C145.027 2.20619 145.402 1.68455 145.599 1.4658C145.795 1.24705 146.019 1.06756 146.098 1.12365C146.176 1.17974 146.109 1.44336 145.946 1.74064Z" fill="white"/>
</svg>
